# xmcd
#
# Track frame offsets:
#	150
#	20721
#	46714
#	66584
#	87138
#	102137
#	121700
#	141777
#	160130
#	185385
#
# Disc length: 2746 seconds
# Revision: 0
# Processed by: cddbd v1.5.2PL0 Copyright (c) Steve Scherf et al.
# Submitted via: dBpowerAMP V12.0
#
DISCID=7c0ab80a
DTITLE=Pauli Carman - Dial My Number
DYEAR=2007
DGENRE=Funk, Soul
TTITLE0=Dial My Number
TTITLE1=Flashback
TTITLE2=You Impress Me
TTITLE3=Big On Pleasure
TTITLE4=Love Control
TTITLE5=High and Low
TTITLE6=Close To The Bone
TTITLE7=Dangerous
TTITLE8=Dial My Number (Ext 12" Mix)
TTITLE9=Dial My Number (12" Dub Mix)
EXTD=
EXTT0=
EXTT1=
EXTT2=
EXTT3=
EXTT4=
EXTT5=
EXTT6=
EXTT7=
EXTT8=
EXTT9=
PLAYORDER=
